# xmcd CD database file
#
# Track frame offsets:
#	150
#	20055
#	40070
#	59792
#	79335
#	100665
#	123245
#	139647
#	156470
#	175475
#
# Disc length: 2605 seconds
#
# Revision: 0
# Processed by: cddbd v1.5.1PL0 Copyright (c) Steve Scherf et al.
# Submitted via: CDex 1.51
#
DISCID=8a0a2b0a
DTITLE=稲垣潤一 - NO STRINGS
DYEAR=2002
DGENRE=JPop
TTITLE0=Ｊの彼女
TTITLE1=The Rule of love -Baby,take a chance on me-
TTITLE2=Mr. Blur
TTITLE3=ブルージン・ピエロ
TTITLE4=愛は腕の中で
TTITLE5=JAJAUMA
TTITLE6=楽園伝説
TTITLE7=時を止めた涙
TTITLE8=Blue Flame
TTITLE9=優しさが瞳に染みる  … Bounus Track
EXTD=YEAR: 2002
EXTT0=
EXTT1=
EXTT2=
EXTT3=
EXTT4=
EXTT5=
EXTT6=
EXTT7=
EXTT8=
EXTT9=
PLAYORDER=
